<?xml version="1.0" standalone="no"?>
<!DOCTYPE svg PUBLIC "-//W3C//DTD SVG 20010904//EN"
 "http://www.w3.org/TR/2001/REC-SVG-20010904/DTD/svg10.dtd">
<svg version="1.0" xmlns="http://www.w3.org/2000/svg"
 width="1080.000000pt" height="1080.000000pt" viewBox="0 0 1080.000000 1080.000000"
 preserveAspectRatio="xMidYMid meet">
<metadata>
Created by potrace 1.14, written by Peter Selinger 2001-2017
</metadata>
<g transform="translate(0.000000,1080.000000) scale(0.100000,-0.100000)"
fill="#000000" stroke="none">
<path d="M5220 8834 c-19 -2 -80 -9 -135 -14 -113 -12 -330 -51 -450 -81 -222
-56 -710 -245 -710 -276 0 -6 108 -120 239 -253 177 -178 244 -239 255 -234
66 30 348 118 443 139 209 46 305 57 545 62 264 6 397 -4 613 -47 425 -85 792
-249 1145 -514 140 -105 389 -349 498 -487 355 -451 553 -966 598 -1554 21
-281 -16 -647 -92 -908 -11 -37 -18 -76 -15 -85 3 -9 118 -129 255 -266 l249
-249 16 37 c61 147 131 375 170 556 52 241 68 381 73 656 7 348 -13 557 -84
864 -226 986 -900 1839 -1813 2297 -352 177 -697 283 -1105 339 -105 14 -613
28 -695 18z"/>
<path d="M2959 7743 c-827 -879 -1126 -2141 -786 -3318 33 -111 125 -361 146
-394 7 -11 68 43 264 233 l254 247 -27 87 c-80 250 -114 489 -114 802 0 312
31 526 118 812 116 381 341 778 596 1051 l73 78 -229 230 c-126 126 -232 229
-235 229 -3 0 -30 -26 -60 -57z"/>
<path d="M5000 6123 c-261 -256 -653 -640 -870 -852 -217 -212 -505 -494 -640
-626 -135 -132 -342 -334 -460 -450 -118 -115 -316 -309 -440 -430 -124 -121
-322 -315 -440 -430 -118 -116 -321 -314 -450 -442 -129 -127 -300 -294 -380
-371 l-145 -141 725 -1 725 0 1410 1410 1410 1410 195 -193 c107 -106 243
-239 303 -296 l107 -105 0 705 -1 704 -283 288 c-155 158 -284 287 -287 286
-2 0 -218 -210 -479 -466z"/>
<path d="M6160 5506 l0 -1016 263 -268 c145 -147 366 -372 492 -499 125 -128
231 -233 235 -233 4 0 8 670 9 1489 l2 1490 -43 5 c-24 3 -216 12 -428 21
-212 8 -418 18 -457 21 l-73 6 0 -1016z"/>
<path d="M7260 4098 l0 -686 408 -404 c224 -222 459 -454 522 -516 l115 -112
664 0 c365 0 661 3 657 7 -5 5 -270 273 -590 598 -795 807 -1300 1319 -1558
1580 l-218 220 0 -687z"/>
<path d="M6915 3024 c-93 -61 -365 -194 -490 -240 -193 -71 -374 -117 -595
-151 -161 -25 -585 -25 -753 0 -359 54 -704 171 -992 336 -58 34 -108 61 -113
61 -4 0 -112 -105 -241 -234 l-234 -234 76 -51 c95 -64 283 -169 407 -228 740
-351 1583 -426 2375 -211 242 65 446 145 683 268 203 106 412 239 412 263 0
11 -450 467 -460 467 -3 0 -36 -21 -75 -46z"/>
</g>
</svg>
